<?xml version="1.0" standalone="no"?>
<!DOCTYPE svg PUBLIC "-//W3C//DTD SVG 20010904//EN"
 "http://www.w3.org/TR/2001/REC-SVG-20010904/DTD/svg10.dtd">
<svg version="1.0" xmlns="http://www.w3.org/2000/svg"
 width="512.000000pt" height="512.000000pt" viewBox="0 0 512.000000 512.000000"
 preserveAspectRatio="xMidYMid meet">

<g transform="translate(0.000000,512.000000) scale(0.100000,-0.100000)"
fill="#000000" stroke="none">
<path d="M2000 4625 c-19 -9 -48 -28 -63 -43 -15 -14 -170 -275 -344 -579
l-317 -553 -238 0 c-215 0 -242 -2 -292 -21 -80 -29 -139 -88 -210 -209 l-62
-105 -71 -5 c-142 -10 -196 -98 -180 -292 10 -118 65 -175 177 -185 33 -3 60
-9 60 -12 0 -3 78 -432 174 -952 129 -702 179 -956 196 -988 33 -65 102 -134
167 -167 l58 -29 1500 0 1500 0 62 29 c102 47 176 140 202 251 10 45 341 1847
341 1858 0 2 27 7 60 10 112 10 167 67 177 185 16 194 -38 282 -180 292 l-71
5 -62 105 c-71 121 -130 180 -210 209 -50 19 -77 21 -293 21 l-237 0 -318 554
c-209 366 -329 565 -351 584 -142 125 -376 9 -363 -180 4 -53 21 -85 256 -496
139 -242 252 -444 252 -451 0 -8 -200 -11 -760 -11 -553 0 -760 3 -760 11 0 6
113 209 252 451 235 411 252 443 256 496 5 79 -34 154 -102 196 -59 37 -150
46 -206 21z m131 -138 c20 -15 39 -51 39 -72 0 -9 -122 -229 -272 -490 l-272
-475 -88 0 c-57 0 -88 4 -88 11 0 20 562 994 586 1017 27 24 70 28 95 9z m953
-9 c24 -23 586 -997 586 -1017 0 -7 -31 -11 -88 -11 l-88 0 -272 475 c-150
261 -272 481 -272 490 0 21 19 57 39 72 25 19 68 15 95 -9z m1254 -1187 c20
-11 49 -32 63 -48 24 -26 79 -115 79 -127 0 -3 -864 -6 -1920 -6 -1056 0
-1920 2 -1920 5 0 15 63 114 87 137 67 62 -80 57 1831 58 1696 0 1744 -1 1780
-19z m416 -337 c10 -26 7 -144 -4 -165 -11 -19 -46 -19 -2190 -19 -2144 0
-2179 0 -2190 19 -11 21 -14 139 -4 165 6 15 208 16 2194 16 1986 0 2188 -1
2194 -16z m-237 -346 c-3 -13 -78 -419 -166 -903 -89 -484 -166 -900 -173
-925 -14 -54 -69 -117 -123 -141 -38 -18 -109 -19 -1493 -19 -1614 0 -1490 -5
-1565 68 -25 24 -43 54 -52 87 -8 27 -86 446 -175 930 -88 484 -162 890 -165
903 l-5 22 1961 0 1961 0 -5 -22z"/>
<path d="M1188 2446 c-54 -20 -86 -43 -109 -79 -45 -74 -45 -66 36 -729 43
-351 83 -637 91 -657 32 -77 101 -121 188 -121 69 0 95 10 145 56 29 25 45 51
56 87 14 48 12 74 -60 666 -42 344 -82 634 -91 658 -27 74 -115 134 -194 133
-14 -1 -42 -7 -62 -14z m110 -146 c12 -12 22 -24 22 -28 0 -4 34 -279 74 -611
51 -417 72 -611 65 -628 -10 -26 -52 -47 -79 -38 -47 15 -48 19 -125 654 -55
445 -72 617 -65 631 23 42 74 52 108 20z"/>
<path d="M1836 2446 c-47 -18 -104 -70 -122 -113 -20 -46 -18 -110 21 -744 27
-435 39 -579 51 -609 32 -81 137 -139 222 -124 83 14 157 83 175 164 4 14 -11
307 -32 650 -41 666 -41 668 -97 723 -59 59 -145 80 -218 53z m114 -144 c22
-18 24 -29 61 -632 24 -391 34 -622 28 -637 -10 -26 -52 -46 -79 -38 -50 16
-49 9 -85 601 -42 681 -42 688 -13 708 30 21 61 20 88 -2z"/>
<path d="M2475 2441 c-22 -10 -52 -31 -67 -47 -59 -64 -58 -45 -58 -739 0
-551 2 -641 15 -673 66 -157 286 -171 372 -24 l28 47 3 620 c2 445 0 635 -8
674 -27 124 -170 195 -285 142z m130 -146 l25 -24 0 -614 c0 -571 -1 -616 -17
-635 -27 -32 -64 -37 -96 -12 l-27 21 0 624 0 624 22 21 c29 27 64 25 93 -5z"/>
<path d="M3135 2445 c-49 -17 -112 -85 -124 -134 -5 -20 -26 -314 -47 -654
-42 -695 -43 -671 30 -743 66 -67 145 -80 232 -40 57 27 86 58 108 119 23 65
93 1263 77 1318 -34 114 -160 175 -276 134z m125 -149 l23 -25 -38 -613 c-27
-445 -40 -619 -50 -634 -27 -43 -104 -35 -122 12 -3 8 11 281 31 607 20 325
36 600 36 610 0 26 45 67 73 67 13 0 34 -11 47 -24z"/>
<path d="M3769 2433 c-39 -20 -61 -40 -81 -73 -26 -43 -31 -74 -104 -669 -49
-407 -74 -639 -69 -667 20 -139 189 -214 311 -138 92 56 88 40 171 713 45 365
73 622 71 662 -4 87 -36 136 -109 173 -69 34 -120 34 -190 -1z m141 -133 c13
-13 20 -33 20 -56 0 -60 -140 -1187 -150 -1212 -22 -51 -105 -46 -123 8 -6 17
16 226 66 635 70 570 77 610 97 627 29 24 65 23 90 -2z"/>
</g>
</svg>
