
<svg version="1.0" xmlns="http://www.w3.org/2000/svg"
 width="920.000000pt" height="600.000000pt" viewBox="0 0 920.000000 600.000000"
 preserveAspectRatio="xMidYMid meet">

<g transform="translate(0.000000,600.000000) scale(0.100000,-0.100000)"
fill="#000000" stroke="none">
<path d="M4634 4357 c0 -23 -3 -51 -8 -62 -8 -20 -7 -20 8 -1 16 20 22 91 8
100 -4 2 -8 -14 -8 -37z"/>
<path d="M4748 4375 c-12 -27 2 -74 30 -97 12 -10 11 -7 -3 15 -12 20 -16 39
-12 67 6 46 1 51 -15 15z"/>
<path d="M4441 4315 l-25 -14 27 -6 c14 -4 32 -5 39 -2 8 4 7 6 -4 6 -11 1
-15 6 -12 16 7 17 7 17 -25 0z"/>
<path d="M4922 4305 c-11 -13 -9 -15 12 -15 30 0 42 15 20 24 -19 7 -16 8 -32
-9z"/>
<path d="M4265 4285 c-104 -28 -195 -97 -236 -178 -28 -53 -42 -187 -29 -258
19 -100 2 -59 -29 72 -18 72 -40 148 -50 168 -38 72 -102 111 -183 111 -57 0
-108 -51 -108 -107 0 -36 13 -63 31 -63 4 0 5 18 2 40 -7 50 15 86 65 107 45
19 96 6 132 -32 22 -23 22 -25 5 -19 -11 3 -5 -3 13 -15 41 -26 47 -43 82
-216 35 -167 86 -280 157 -346 61 -56 162 -102 232 -105 l56 -3 -47 9 c-64 11
-163 66 -199 109 -100 121 -58 351 75 412 59 27 142 25 197 -4 56 -30 96 -100
82 -144 -8 -24 -15 -28 -55 -31 -42 -3 -47 0 -96 50 -42 43 -57 52 -86 52 -77
0 -114 -86 -61 -139 14 -15 35 -25 52 -24 26 0 27 1 6 9 -31 13 -56 55 -49 83
5 22 42 47 69 47 7 0 37 -23 65 -51 51 -50 54 -51 100 -46 l47 5 -24 -19 c-52
-43 -117 -32 -145 24 -15 32 -16 32 -16 6 0 -41 44 -79 92 -79 34 0 46 7 108
68 79 77 105 127 95 181 -21 112 -118 194 -249 210 l-61 7 80 18 c76 17 166
41 192 52 17 8 84 -56 104 -100 l17 -38 16 34 c9 19 33 51 54 71 l37 36 65
-19 c36 -10 101 -27 145 -36 l80 -18 -61 -7 c-33 -4 -82 -17 -108 -29 -80 -38
-146 -131 -146 -207 0 -41 21 -78 71 -128 27 -27 59 -60 71 -72 15 -17 33 -23
64 -23 35 0 47 5 68 31 14 17 26 40 26 52 0 19 -3 18 -20 -10 -10 -17 -29 -37
-41 -43 -27 -15 -81 -5 -102 18 -15 16 -12 17 34 17 46 0 52 3 93 48 45 48 63
55 96 37 49 -26 45 -86 -7 -114 l-28 -15 28 -1 c37 0 77 40 77 79 0 44 -37 83
-82 84 -31 1 -45 -7 -92 -51 -47 -45 -60 -52 -94 -52 -50 0 -66 19 -59 65 8
49 41 92 89 116 59 30 159 24 216 -13 60 -40 105 -136 106 -226 1 -143 -86
-242 -244 -279 l-55 -13 57 3 c39 3 77 14 124 37 142 70 215 185 259 405 31
158 40 187 65 210 11 10 18 21 15 25 -8 13 39 48 80 60 81 24 155 -38 140
-116 -7 -38 8 -46 25 -15 15 28 12 73 -6 99 -57 82 -202 62 -264 -35 -19 -29
-39 -90 -60 -176 -32 -138 -60 -231 -66 -225 -2 2 6 32 16 67 14 43 20 92 20
155 0 126 -18 176 -89 246 -79 78 -178 121 -276 119 -37 -1 -37 -2 15 -10 115
-20 230 -100 279 -198 53 -103 64 -247 27 -346 l-15 -40 7 45 c4 25 7 88 6
141 -1 114 -22 169 -87 224 -52 45 -118 69 -259 95 -135 25 -180 39 -173 51
16 25 -89 -36 -119 -69 l-19 -21 -19 25 c-19 23 -127 86 -114 66 8 -14 -10
-19 -157 -48 -160 -31 -228 -56 -279 -102 -67 -60 -82 -101 -83 -222 0 -58 2
-123 5 -145 5 -37 -10 -64 -18 -33 -2 9 0 8 7 -2 15 -20 13 -5 -4 60 -65 244
83 485 319 520 l51 8 -45 0 c-25 0 -67 -5 -95 -13z m169 -146 c97 -36 168
-145 152 -231 -3 -18 -16 -49 -28 -68 l-22 -35 -6 40 c-8 57 -38 104 -89 140
-39 27 -50 30 -121 30 -71 0 -82 -3 -122 -30 -28 -21 -53 -50 -73 -90 -27 -53
-30 -67 -30 -156 0 -96 0 -97 -14 -61 -9 23 -15 77 -15 147 -1 98 2 116 25
165 36 76 75 119 134 146 63 30 136 31 209 3z m759 -12 c110 -65 170 -234 137
-392 -19 -93 -25 -91 -26 8 0 109 -22 165 -85 222 -50 45 -76 55 -145 55 -111
0 -204 -83 -204 -182 0 -27 -2 -29 -17 -17 -9 8 -22 28 -30 46 -45 109 32 240
167 284 49 16 155 4 203 -24z m-1164 -392 c0 -5 -4 -3 -9 5 -5 8 -9 22 -9 30
0 16 17 -16 18 -35z"/>
<path d="M4670 4275 c-13 -14 -22 -26 -19 -28 2 -1 14 -11 26 -21 20 -16 24
-17 37 -3 9 8 21 17 27 19 7 2 1 15 -15 31 -15 15 -28 27 -30 27 -1 0 -13 -11
-26 -25z m44 -12 c9 -24 -9 -39 -29 -23 -12 10 -13 16 -4 26 15 19 25 18 33
-3z"/>
<path d="M4860 4280 c-18 -12 -2 -12 25 0 13 6 15 9 5 9 -8 0 -22 -4 -30 -9z"/>
<path d="M3770 4115 c-20 -24 -6 -28 15 -5 10 11 13 20 8 20 -6 0 -16 -7 -23
-15z"/>
<path d="M5611 4111 c13 -11 26 -18 28 -15 7 7 -21 34 -36 34 -10 0 -8 -6 8
-19z"/>
<path d="M3120 4097 c0 -10 15 -25 35 -34 25 -12 32 -19 23 -25 -15 -10 45 0
77 13 16 6 12 8 -17 8 -46 1 -89 17 -105 38 -12 16 -13 16 -13 0z"/>
<path d="M6249 4089 c-14 -11 -47 -24 -75 -28 -47 -7 -48 -8 -19 -15 48 -12
71 -16 57 -10 -9 4 1 13 27 25 23 10 41 25 41 34 0 18 1 19 -31 -6z"/>
<path d="M3417 4035 c104 -29 151 -63 322 -227 157 -151 298 -273 385 -332 47
-31 43 -32 -20 -6 -26 11 -49 18 -52 15 -3 -2 3 -8 13 -11 14 -6 11 -9 -16
-18 -19 -6 -35 -19 -37 -29 -3 -17 -2 -17 17 2 23 23 57 26 111 11 23 -7 38
-6 45 1 7 7 5 8 -8 3 -10 -4 -17 -2 -15 4 2 5 -26 31 -62 58 -36 26 -159 140
-275 254 -194 190 -216 208 -290 242 -44 21 -100 40 -125 43 l-45 5 52 -15z"/>
<path d="M5920 4027 c-114 -41 -159 -75 -361 -278 -109 -108 -227 -218 -263
-244 -38 -27 -63 -51 -59 -58 4 -6 0 -8 -10 -4 -10 3 -17 2 -17 -3 0 -6 -3 -9
-7 -8 -5 1 -21 -4 -36 -10 -16 -7 -33 -12 -39 -12 -6 0 -9 -3 -6 -6 4 -3 43 6
88 20 99 32 133 33 161 5 19 -19 20 -19 17 -2 -2 10 -18 23 -36 29 -18 5 -29
13 -26 17 11 11 -4 8 -43 -8 -19 -8 -37 -15 -40 -15 -2 0 40 33 94 74 54 40
189 159 299 263 206 195 249 225 349 249 29 7 39 13 25 13 -14 0 -54 -10 -90
-22z"/>
<path d="M3128 3909 c-27 -10 -39 -29 -19 -29 5 0 45 7 88 15 87 17 152 20
118 5 -11 -4 -42 -16 -68 -25 -49 -17 -220 -125 -212 -133 10 -10 72 21 136
69 38 28 90 57 116 65 89 27 185 -11 250 -99 33 -43 44 -71 54 -137 8 -53 8
-53 5 18 -3 73 -3 74 28 93 52 32 104 1 113 -69 8 -59 -3 -90 -40 -112 -17
-11 -26 -20 -19 -20 8 0 27 13 43 29 25 25 29 37 29 84 0 107 -76 163 -140
102 l-28 -26 -20 33 c-32 51 -82 95 -137 119 -40 18 -72 23 -160 26 -62 1
-122 -2 -137 -8z"/>
<path d="M6019 3906 c-75 -20 -138 -63 -172 -117 l-30 -50 -27 26 c-53 51
-126 19 -135 -61 -5 -38 -5 -38 5 -8 19 61 74 84 122 52 20 -14 22 -23 21 -94
l-1 -79 7 67 c13 119 95 215 203 237 71 15 132 -3 207 -62 64 -50 117 -80 134
-74 12 4 -98 84 -158 115 -22 11 -60 26 -85 33 -70 20 -22 23 82 5 107 -19
108 -19 108 -7 0 30 -191 42 -281 17z"/>
<path d="M6468 3840 c45 -91 28 -203 -43 -277 -48 -50 -75 -54 -104 -17 -19
24 -21 25 -21 7 0 -24 30 -53 54 -53 24 0 58 19 79 44 13 15 11 6 -7 -30 -28
-57 -91 -118 -145 -141 -88 -38 -194 -12 -259 62 -22 25 -32 31 -32 19 0 -26
67 -82 118 -99 l47 -15 -55 5 c-61 7 -152 44 -189 78 -13 12 -21 16 -16 8 6
-11 -2 -12 -44 -6 -59 8 -101 -11 -101 -46 l0 -20 26 20 c40 32 92 27 199 -19
83 -35 103 -40 173 -40 43 0 94 5 113 11 113 39 210 182 235 349 l7 44 22 -79
c11 -44 26 -89 32 -100 20 -35 58 -64 93 -71 l35 -7 -58 61 c-59 63 -104 143
-114 207 -7 41 1 43 36 13 14 -13 8 -3 -14 20 -39 42 -39 44 -21 58 16 12 17
14 4 14 -9 0 -29 11 -45 24 l-29 25 24 -49z"/>
<path d="M2917 3859 c-15 -12 -34 -18 -42 -15 -24 9 -17 -10 6 -21 21 -9 21
-10 -12 -49 -18 -21 -24 -31 -12 -21 30 26 37 7 19 -52 -18 -63 -57 -124 -114
-183 -37 -39 -42 -48 -27 -48 60 0 124 85 140 188 4 23 10 42 15 42 4 0 13
-27 20 -61 27 -125 98 -239 178 -286 40 -24 60 -28 142 -31 94 -4 98 -3 192
37 110 47 161 52 202 20 21 -17 26 -18 26 -5 0 23 -37 56 -62 56 -13 0 -40 -4
-61 -9 l-39 -9 23 26 c17 20 14 18 -11 -5 -49 -45 -139 -84 -207 -89 l-58 -5
51 19 c67 24 103 48 113 75 13 34 5 33 -25 -2 -57 -68 -156 -93 -248 -62 -49
17 -121 82 -147 133 l-19 38 32 -20 c43 -26 73 -25 92 2 24 34 19 55 -5 24
-24 -30 -38 -32 -82 -9 -18 9 -35 16 -38 15 -4 0 -6 4 -6 11 1 7 -10 35 -23
62 -32 67 -33 153 -2 213 12 23 21 42 20 42 -2 0 -15 -10 -31 -21z"/>
<path d="M3322 3794 c-12 -8 -22 -22 -22 -30 0 -14 2 -14 16 0 21 21 30 20 48
-6 21 -30 20 -84 -3 -133 l-18 -40 -17 30 c-9 17 -14 21 -10 10 4 -11 8 -30 8
-42 1 -11 4 -19 8 -17 4 2 23 -7 44 -21 47 -32 76 -32 111 1 l28 25 -32 -22
c-29 -20 -36 -21 -72 -11 -60 19 -65 31 -36 93 16 35 25 72 25 105 0 71 -29
93 -78 58z"/>
<path d="M4675 3776 c-13 -31 -18 -35 -35 -26 -10 5 -22 10 -25 10 -15 0 8
-57 41 -102 40 -56 42 -84 15 -181 -21 -72 -18 -101 13 -126 14 -12 19 -11 37
5 23 21 22 52 -4 169 -16 68 -14 80 14 115 17 20 19 21 13 5 -15 -42 -15 -83
0 -142 24 -90 21 -139 -9 -168 -13 -14 -29 -25 -35 -25 -6 0 -22 11 -35 25
-33 33 -35 65 -9 176 20 85 8 134 -41 178 -55 48 -136 40 -182 -19 -37 -46 7
-120 72 -120 19 0 35 5 35 10 0 6 -4 10 -10 10 -5 0 -17 11 -25 24 -34 52 30
90 79 49 21 -18 21 -18 2 5 -19 22 -69 30 -92 14 -19 -13 -23 -39 -8 -67 18
-35 -5 -29 -25 6 -33 59 28 119 102 98 75 -20 99 -89 73 -208 -22 -106 -21
-137 9 -166 28 -29 54 -31 95 -10 41 21 45 51 25 156 -27 139 -12 194 63 226
27 11 37 11 67 -1 48 -20 62 -53 41 -95 -9 -17 -22 -31 -28 -31 -9 0 -9 3 0
12 15 15 15 61 0 76 -20 20 -73 14 -94 -10 l-19 -23 22 18 c13 11 33 17 50 15
25 -3 28 -7 28 -38 0 -26 -6 -37 -22 -46 -29 -14 -19 -24 24 -24 42 0 83 38
83 76 0 16 -12 38 -34 60 -28 28 -41 34 -78 34 -42 0 -79 -17 -106 -50 -7 -8
-3 6 10 32 24 52 19 70 -13 49 -12 -7 -22 -11 -23 -9 -1 2 -6 16 -11 32 -14
43 -33 43 -50 2z m43 -50 l3 -37 21 26 c11 14 22 24 25 21 7 -6 -26 -67 -50
-94 l-20 -22 -34 47 c-39 55 -45 94 -8 48 l25 -30 0 36 c0 62 33 67 38 5z m-1
-284 c4 -36 2 -57 -7 -67 -25 -31 -39 29 -24 104 9 44 23 26 31 -37z"/>
<path d="M6012 3798 c-22 -22 -14 -119 13 -175 14 -28 33 -54 42 -57 12 -5 13
-3 5 6 -7 9 -6 19 4 32 8 11 14 25 14 30 -1 6 -8 -2 -17 -18 l-16 -30 -18 35
c-30 55 -21 159 13 159 6 0 20 -7 30 -17 25 -22 23 2 -2 27 -23 23 -50 26 -68
8z"/>
<path d="M2377 3736 c-60 -91 8 -176 128 -163 62 8 134 28 117 34 -7 3 -27 0
-44 -6 -112 -39 -207 24 -181 120 12 44 3 51 -20 15z"/>
<path d="M6997 3740 c15 -48 8 -90 -20 -118 -24 -23 -36 -27 -85 -27 -31 1
-73 4 -92 8 l-35 7 30 -14 c39 -19 124 -30 163 -21 79 17 109 104 56 162 l-25
28 8 -25z"/>
<path d="M3498 3695 c12 -9 26 -30 31 -48 8 -29 9 -30 10 -7 1 32 -25 70 -47
70 -13 0 -12 -3 6 -15z"/>
<path d="M5870 3691 c-11 -22 -12 -67 -1 -95 7 -17 9 -17 29 9 12 15 22 35 22
44 -1 9 -7 1 -15 -17 -17 -38 -35 -34 -35 8 0 19 9 35 26 49 25 20 25 21 6 21
-12 0 -26 -9 -32 -19z"/>
<path d="M2527 3693 c-12 -12 -7 -40 10 -54 15 -13 15 -12 5 8 -7 12 -9 29 -6
37 6 17 2 21 -9 9z"/>
<path d="M6863 3686 c4 -10 2 -27 -4 -39 -10 -21 -10 -21 5 -3 19 24 20 42 4
52 -8 5 -9 2 -5 -10z"/>
<path d="M4281 3654 c-11 -15 -21 -38 -21 -51 0 -55 62 -124 125 -138 25 -6
22 -3 -14 16 -56 30 -83 66 -84 113 -1 50 33 87 64 68 18 -11 20 -11 17 0 -3
7 -18 14 -35 16 -24 2 -36 -3 -52 -24z"/>
<path d="M5030 3664 c-12 -13 -10 -14 14 -2 26 11 30 10 47 -11 39 -48 13
-133 -51 -166 -43 -22 -54 -18 -31 11 16 20 18 31 10 45 -5 10 -17 19 -27 18
-10 0 -12 -3 -4 -6 20 -8 14 -51 -10 -67 -29 -20 -77 -20 -105 -1 -24 17 -45
77 -36 102 4 11 2 14 -5 9 -19 -11 -14 -61 9 -90 26 -33 72 -57 116 -61 30 -3
33 -2 21 12 -11 14 -10 15 9 9 49 -15 136 56 148 121 8 42 -26 93 -64 93 -16
0 -34 -7 -41 -16z"/>
<path d="M6091 3664 c0 -11 3 -14 6 -6 3 7 2 16 -1 19 -3 4 -6 -2 -5 -13z"/>
<path d="M3480 3645 c0 -15 29 -55 41 -55 5 0 9 5 9 11 0 5 -4 8 -10 4 -5 -3
-16 7 -24 22 -8 15 -15 23 -16 18z"/>
<path d="M5651 3633 c-1 -12 9 -32 22 -45 12 -13 16 -16 9 -7 -7 9 -17 30 -22
45 -7 24 -8 25 -9 7z"/>
<path d="M4560 3565 c-1 -60 -37 -95 -99 -95 -39 0 -76 43 -60 71 12 22 -3 26
-21 4 -15 -18 -4 -52 21 -65 10 -6 19 -18 19 -27 0 -12 7 -14 32 -9 79 16 143
91 120 139 -10 20 -11 18 -12 -18z"/>
<path d="M4784 3549 c3 -60 29 -109 69 -131 15 -8 11 1 -15 30 -21 23 -39 55
-42 74 -12 75 -15 80 -12 27z"/>
<path d="M3179 3556 c19 -20 33 -26 65 -25 39 1 39 1 11 8 -16 4 -46 16 -65
26 l-35 18 24 -27z"/>
<path d="M4602 3528 c-8 -34 -24 -64 -44 -86 -24 -25 -27 -32 -11 -23 30 15
61 69 69 119 9 58 1 53 -14 -10z"/>
<path d="M6204 3566 c-11 -8 -36 -19 -55 -24 l-34 -10 41 -1 c29 -1 46 5 59
19 23 25 16 34 -11 16z"/>
<path d="M3575 3560 c-3 -5 -1 -10 4 -10 6 0 11 5 11 10 0 6 -2 10 -4 10 -3 0
-8 -4 -11 -10z"/>
<path d="M5806 3561 c-4 -5 -2 -12 3 -15 5 -4 12 -2 15 3 4 5 2 12 -3 15 -5 4
-12 2 -15 -3z"/>
<path d="M6000 3544 c-14 -8 -38 -12 -55 -9 -22 4 -26 2 -15 -5 24 -15 56 -12
81 10 28 23 24 24 -11 4z"/>
<path d="M3743 3520 c-36 -16 -43 -24 -43 -48 0 -18 10 -38 26 -53 l26 -24
-18 31 c-17 30 -17 33 0 59 10 14 32 33 49 40 18 8 25 14 17 14 -8 0 -34 -8
-57 -19z"/>
<path d="M5478 3533 c7 -3 16 -2 19 1 4 3 -2 6 -13 5 -11 0 -14 -3 -6 -6z"/>
<path d="M5588 3533 c7 -3 16 -2 19 1 4 3 -2 6 -13 5 -11 0 -14 -3 -6 -6z"/>
<path d="M5637 3512 c29 -23 44 -63 31 -88 -7 -14 -4 -13 11 5 30 34 27 67 -9
86 -39 20 -60 19 -33 -3z"/>
<path d="M4196 3431 c-6 -9 102 -47 110 -38 2 2 -15 9 -38 16 -24 7 -48 17
-55 23 -7 5 -13 5 -17 -1z"/>
<path d="M3780 3405 l-25 -14 28 -1 c17 0 27 5 27 15 0 18 1 18 -30 0z"/>
<path d="M5590 3405 c0 -8 9 -15 20 -15 11 0 20 2 20 5 0 2 -9 9 -20 15 -16 9
-20 8 -20 -5z"/>
<path d="M938 3285 l22 -16 0 -319 c0 -318 0 -319 -22 -334 -21 -15 3 -16 277
-15 204 0 310 4 330 12 91 36 135 91 135 172 0 63 -22 106 -71 136 -79 48 -77
44 -32 68 62 31 83 64 83 129 0 71 -31 114 -109 151 -56 26 -57 26 -346 29
-268 3 -288 2 -267 -13z m551 -119 c22 -20 28 -65 11 -96 -17 -31 -67 -40
-231 -40 l-159 0 0 81 0 81 179 -4 c159 -3 181 -5 200 -22z m-32 -267 c64 -24
90 -78 62 -131 -21 -39 -68 -48 -244 -48 l-165 0 0 95 0 95 159 0 c89 0 172
-5 188 -11z"/>
<path d="M5248 3288 l22 -11 0 -327 0 -327 -22 -11 c-17 -8 62 -11 307 -11
272 -1 335 -4 359 -16 15 -8 30 -15 32 -15 2 0 4 41 4 90 0 50 -2 90 -5 90 -3
0 -14 -9 -25 -20 -19 -19 -31 -20 -258 -18 l-237 3 -3 275 c-2 270 -2 275 19
293 20 16 17 17 -97 16 -93 0 -114 -3 -96 -11z"/>
<path d="M6318 3189 c-130 -14 -238 -98 -269 -207 -17 -60 -7 -177 19 -228 28
-55 102 -119 159 -138 106 -36 288 -29 373 14 121 62 177 182 151 326 -31 169
-200 260 -433 233z m200 -121 c27 -14 59 -42 77 -67 26 -37 30 -51 30 -110 0
-79 -23 -123 -88 -165 -118 -76 -288 -40 -348 74 -21 39 -25 122 -8 167 19 52
78 101 149 124 43 14 139 2 188 -23z"/>
<path d="M7148 3189 c-127 -14 -222 -84 -264 -195 -23 -59 -16 -183 13 -239
49 -93 147 -150 279 -161 232 -19 384 75 409 252 31 231 -154 376 -437 343z
m200 -121 c27 -14 59 -42 77 -67 26 -37 30 -51 30 -110 0 -79 -23 -123 -88
-165 -118 -76 -288 -40 -348 74 -21 39 -25 122 -8 167 19 52 78 101 149 124
43 14 139 2 188 -23z"/>
<path d="M1900 3185 c0 -3 7 -13 15 -21 13 -13 15 -57 15 -271 0 -225 -2 -259
-17 -275 -15 -17 -13 -18 70 -18 51 0 87 4 87 10 0 6 -4 10 -10 10 -6 0 -10
41 -10 104 0 85 3 105 16 110 21 8 148 8 169 -1 29 -10 137 -184 132 -210 -4
-23 -3 -23 97 -23 l100 0 -31 28 c-32 28 -160 209 -152 215 2 2 27 16 55 31
68 37 98 88 92 158 -6 63 -31 96 -94 128 -48 24 -56 25 -291 29 -134 1 -243 0
-243 -4z m454 -105 c14 -5 32 -21 42 -35 14 -21 14 -30 5 -54 -19 -45 -52 -55
-203 -59 l-138 -4 0 81 0 81 134 0 c74 0 146 -4 160 -10z"/>
<path d="M2904 3165 c5 -18 -22 -86 -106 -269 -62 -135 -121 -255 -130 -266
-10 -11 -18 -22 -18 -25 0 -3 39 -5 88 -4 48 0 81 3 75 6 -7 2 -13 14 -13 26
0 25 36 98 54 109 6 4 70 8 143 8 148 0 150 -1 178 -75 14 -36 15 -48 5 -60
-11 -13 -1 -15 86 -15 l97 0 -21 23 c-33 35 -263 530 -252 541 22 22 6 26 -91
26 l-101 0 6 -25z m141 -213 l54 -112 -104 0 -105 0 16 38 c9 20 30 71 47 114
18 42 33 75 34 74 2 -1 27 -53 58 -114z"/>
<path d="M3510 3181 c0 -6 5 -13 10 -16 15 -9 13 -538 -2 -553 -9 -9 5 -12 66
-12 66 0 77 2 67 14 -8 9 -11 75 -9 217 l3 203 185 -197 c102 -109 186 -206
188 -217 3 -18 11 -20 89 -20 83 0 85 1 70 18 -15 16 -17 50 -17 275 0 214 2
258 15 271 8 8 15 17 15 20 0 3 -36 6 -80 6 -44 0 -80 -3 -80 -6 0 -3 7 -12
15 -20 12 -13 15 -48 15 -187 0 -95 -4 -178 -8 -185 -12 -18 -358 352 -355
379 3 18 -4 19 -92 19 -53 0 -95 -4 -95 -9z"/>
<path d="M4400 3185 c0 -3 7 -13 15 -21 13 -13 15 -57 15 -271 0 -225 -2 -259
-17 -275 -16 -17 -8 -18 218 -18 225 0 236 1 285 24 97 45 154 144 154 266 0
121 -54 216 -154 268 -50 26 -54 27 -283 30 -128 2 -233 1 -233 -3z m442 -105
c24 -7 48 -24 65 -47 26 -34 28 -42 28 -139 0 -115 -11 -141 -76 -179 -29 -17
-52 -20 -167 -20 l-133 0 -2 198 -2 197 125 0 c69 0 142 -5 162 -10z"/>
<path d="M7766 3173 c14 -27 17 -529 4 -553 -10 -19 -8 -20 77 -20 65 1 83 3
71 11 -15 8 -18 25 -18 94 l0 83 51 41 c29 23 55 41 60 41 4 0 51 -53 104
-117 65 -79 95 -123 92 -135 -5 -16 3 -18 89 -18 56 0 94 4 94 10 0 6 -4 10
-9 10 -10 0 -258 301 -267 324 -3 9 46 54 130 122 75 60 136 112 136 116 0 5
-47 8 -105 8 -105 0 -105 0 -100 -23 5 -19 -12 -37 -119 -125 -68 -56 -131
-105 -140 -108 -14 -5 -16 8 -16 110 0 94 3 118 15 122 37 15 8 24 -71 24 -79
0 -85 -2 -78 -17z"/>
<path d="M3740 2439 c-459 -5 -853 -10 -875 -12 -22 -2 815 -4 1860 -4 1094 0
1747 3 1540 7 -645 13 -1673 17 -2525 9z"/>
<path d="M1763 2349 c14 -8 17 -25 17 -99 0 -74 -3 -91 -17 -99 -14 -8 -4 -10
41 -11 53 0 58 1 41 14 -18 13 -17 16 24 71 23 31 41 58 39 61 -3 2 -18 -14
-34 -36 -16 -22 -32 -40 -36 -40 -5 0 -8 29 -8 65 0 50 4 66 18 74 13 8 3 10
-43 10 -46 0 -56 -2 -42 -10z"/>
<path d="M1900 2350 c8 -5 16 -22 17 -37 2 -15 6 -47 9 -71 8 -53 -1 -89 -24
-95 -9 -3 10 -5 43 -6 45 0 56 2 43 10 -25 14 -26 164 -1 191 15 17 14 18 -43
18 -41 0 -54 -3 -44 -10z"/>
<path d="M2063 2342 c25 -27 24 -177 0 -191 -14 -8 -4 -10 41 -11 51 0 57 2
42 13 -13 9 -17 23 -14 52 3 39 4 40 43 40 39 0 40 -1 43 -40 3 -29 -1 -43
-14 -52 -15 -11 -9 -13 42 -13 45 1 55 3 42 11 -25 14 -26 164 -1 191 15 17
14 18 -43 18 -45 -1 -55 -3 -41 -11 11 -7 17 -22 17 -49 l0 -40 -45 0 -45 0 0
40 c0 27 6 42 18 49 13 8 3 10 -42 11 -57 0 -58 -1 -43 -18z"/>
<path d="M2330 2323 l1 -38 14 26 c15 28 40 43 56 33 5 -3 9 -43 9 -89 0 -63
-4 -88 -16 -99 -14 -15 -10 -16 40 -16 l56 0 -20 20 c-16 16 -20 33 -20 93 0
40 5 78 11 84 17 17 47 4 58 -26 9 -25 9 -25 10 12 l1 37 -100 0 -100 0 0 -37z"/>
<path d="M2580 2340 c16 -16 20 -33 20 -94 0 -54 -4 -79 -16 -90 -14 -15 -7
-16 80 -16 l96 0 0 31 0 32 -25 -27 c-43 -47 -95 -30 -95 31 0 44 26 55 52 24
l18 -23 0 42 c0 42 0 43 -20 25 -26 -23 -50 -13 -50 23 0 56 45 69 85 26 l25
-27 0 32 0 31 -95 0 -95 0 20 -20z"/>
<path d="M2813 2349 c14 -8 17 -25 17 -99 0 -74 -3 -91 -17 -99 -14 -8 -4 -10
41 -11 51 0 57 2 42 13 -12 9 -17 23 -14 47 3 33 6 35 45 41 50 6 73 24 73 55
0 48 -31 64 -122 64 -61 -1 -78 -3 -65 -11z m111 -12 c12 -9 17 -23 14 -47 -2
-29 -7 -35 -27 -35 -22 0 -24 4 -23 43 0 23 1 44 1 47 2 9 17 5 35 -8z"/>
<path d="M3053 2349 c14 -8 17 -25 17 -99 0 -74 -3 -91 -17 -99 -14 -8 -4 -10
41 -11 51 0 57 2 42 13 -13 9 -17 23 -14 52 3 37 5 40 36 43 58 6 81 -37 46
-86 -15 -22 -15 -22 38 -22 41 1 49 3 36 11 -25 14 -26 164 -1 191 15 17 14
18 -40 18 l-57 0 20 -20 c21 -21 24 -37 14 -64 -4 -11 -19 -16 -50 -16 l-44 0
0 40 c0 27 6 42 18 49 13 8 3 10 -43 10 -46 0 -56 -2 -42 -10z"/>
<path d="M3353 2342 c25 -27 24 -177 0 -191 -13 -8 8 -10 80 -11 l97 0 0 30 0
29 -25 -24 c-48 -49 -108 -17 -91 49 8 32 30 33 50 4 16 -22 16 -21 16 21 0
42 -1 43 -18 28 -10 -10 -24 -17 -30 -17 -17 0 -25 45 -12 69 14 28 45 27 75
-4 l25 -24 0 29 0 30 -92 0 c-88 0 -90 -1 -75 -18z"/>
<path d="M3560 2323 l1 -38 14 26 c17 32 45 45 57 27 4 -7 8 -46 8 -85 0 -60
-4 -77 -20 -93 l-20 -20 60 0 60 0 -20 20 c-16 16 -20 33 -20 93 0 42 5 78 12
85 15 15 46 -2 58 -31 7 -19 9 -16 9 16 l1 37 -100 0 -100 0 0 -37z"/>
<path d="M3993 2350 c13 -9 17 -26 19 -78 1 -66 1 -67 7 -17 l6 50 37 -83 c23
-50 43 -82 50 -80 7 3 25 37 41 76 16 40 33 69 38 66 5 -3 9 -32 9 -64 0 -46
-4 -61 -17 -69 -14 -8 -5 -10 37 -10 42 0 51 2 38 10 -15 8 -18 25 -18 99 0
74 3 91 18 99 13 8 9 10 -24 11 l-41 0 -28 -75 c-15 -41 -31 -77 -35 -80 -5
-3 -22 30 -38 72 l-29 78 -44 3 c-35 2 -40 0 -26 -8z"/>
<path d="M4391 2338 c-36 -89 -73 -173 -82 -185 -9 -10 -5 -13 21 -13 28 0 31
2 20 15 -10 12 -10 21 -1 41 9 21 17 25 48 22 31 -2 39 -8 47 -31 8 -22 7 -30
-4 -37 -10 -7 2 -10 39 -10 48 0 52 2 40 16 -8 9 -30 58 -50 108 -38 95 -61
117 -78 74z m29 -95 c0 -7 -11 -13 -25 -13 -29 0 -29 2 -13 48 l13 34 12 -28
c7 -16 12 -35 13 -41z"/>
<path d="M4573 2349 c14 -8 17 -25 17 -99 0 -74 -3 -91 -17 -99 -14 -8 -4 -10
41 -11 51 0 57 2 42 13 -14 10 -16 26 -14 102 3 84 4 90 25 93 14 2 33 -7 49
-23 30 -30 38 -28 28 9 -6 26 -7 26 -98 26 -67 -1 -86 -3 -73 -11z"/>
<path d="M4785 2268 c-21 -51 -45 -101 -53 -110 -14 -17 -12 -18 23 -18 34 0
37 2 21 13 -14 10 -15 17 -7 40 10 25 15 28 48 25 28 -2 41 -9 50 -28 11 -21
10 -27 -4 -37 -14 -11 -7 -13 42 -13 49 0 56 2 42 13 -9 6 -34 55 -55 107 -22
55 -45 96 -54 98 -10 2 -26 -24 -53 -90z m48 15 c2 -10 8 -26 12 -35 6 -15 2
-18 -24 -18 -17 0 -31 2 -31 4 0 1 5 17 11 35 12 35 24 40 32 14z"/>
<path d="M4998 2349 c-10 -5 -18 -17 -18 -24 0 -22 17 -18 23 5 6 24 58 28 77
6 18 -22 8 -59 -20 -73 -24 -12 -24 -13 -3 -13 42 0 56 -57 23 -90 l-20 -20
23 0 c27 0 67 38 67 64 0 9 -11 27 -25 40 -21 19 -23 25 -10 30 22 8 19 63 -4
76 -25 13 -91 13 -113 -1z"/>
<path d="M5203 2349 c14 -8 17 -25 17 -99 0 -74 -3 -91 -17 -99 -14 -8 -4 -10
41 -11 53 0 58 1 41 14 -18 13 -17 16 24 71 32 43 46 54 52 44 15 -23 10 -96
-7 -113 -14 -15 -11 -16 36 -16 47 0 50 1 36 16 -22 22 -22 151 0 182 15 22
15 22 -43 22 -44 -1 -54 -3 -40 -11 9 -5 17 -15 17 -22 0 -16 -70 -117 -81
-117 -17 0 -10 112 8 132 15 17 14 18 -43 18 -45 -1 -55 -3 -41 -11z"/>
<path d="M5503 2349 c14 -8 17 -25 17 -99 0 -74 -3 -91 -17 -99 -14 -8 -6 -10
36 -11 45 0 52 2 42 14 -7 8 -11 32 -9 53 3 35 6 38 36 41 58 6 81 -37 46 -86
-15 -22 -15 -22 38 -22 41 1 49 3 36 11 -25 14 -26 164 -1 191 15 17 14 18
-40 18 l-57 0 20 -20 c21 -21 24 -37 14 -64 -4 -11 -19 -16 -50 -16 l-44 0 0
40 c0 27 6 42 18 49 13 8 3 10 -43 10 -46 0 -56 -2 -42 -10z"/>
<path d="M5931 2346 c-49 -27 -65 -99 -36 -156 20 -39 43 -50 105 -50 44 0 56
5 81 29 49 49 36 146 -22 177 -35 17 -96 18 -128 0z m104 -16 c25 -27 31 -97
12 -143 -13 -31 -21 -37 -46 -37 -43 0 -61 31 -61 104 0 66 17 96 55 96 12 0
30 -9 40 -20z"/>
<path d="M6188 2348 c19 -10 22 -18 22 -77 0 -76 -15 -112 -50 -122 -14 -4 36
-7 110 -7 74 0 126 3 115 5 -30 8 -35 21 -35 98 0 48 5 78 16 93 l15 22 -108
-1 c-85 0 -103 -3 -85 -11z m107 -97 l0 -93 -38 -3 c-32 -2 -37 1 -30 14 4 9
9 48 11 86 4 74 15 98 41 93 13 -3 16 -19 16 -97z"/>
<path d="M6444 2344 c24 -24 23 -179 -1 -193 -13 -8 8 -10 78 -11 l97 0 5 28
c7 37 4 38 -27 7 -18 -18 -35 -25 -54 -23 -24 3 -27 8 -30 42 -4 52 13 69 39
37 l19 -23 0 43 c-1 35 -3 40 -11 27 -5 -10 -19 -18 -29 -18 -29 0 -29 76 0
85 23 7 55 -8 69 -33 13 -24 23 -10 15 22 -6 26 -7 26 -96 26 -81 0 -88 -1
-74 -16z"/>
<path d="M6660 2345 c0 -17 16 -21 22 -5 5 15 21 -2 44 -47 21 -40 21 -41 2
-46 -11 -3 -26 -23 -35 -46 -9 -23 -23 -41 -32 -41 -11 0 -12 -3 -4 -11 6 -6
23 -9 38 -7 22 2 31 12 44 46 17 43 38 65 53 56 12 -8 9 -79 -4 -92 -9 -9 -1
-12 37 -12 38 0 46 3 37 12 -13 13 -16 84 -4 92 15 9 36 -13 52 -56 13 -35 21
-44 44 -46 16 -2 33 1 39 7 8 8 7 11 -4 11 -9 0 -23 18 -32 41 -9 22 -24 43
-35 45 -17 5 -17 8 6 55 23 45 42 63 42 39 0 -5 5 -10 10 -10 6 0 10 7 10 15
0 9 -9 15 -25 15 -19 0 -32 -11 -56 -50 -38 -62 -59 -65 -59 -10 0 27 6 42 18
49 13 8 3 10 -43 10 -46 0 -56 -2 -42 -10 11 -7 17 -22 17 -49 0 -55 -21 -52
-59 10 -24 39 -37 50 -56 50 -16 0 -25 -6 -25 -15z"/>
<path d="M7071 2339 c18 -18 20 -28 13 -87 -8 -83 -16 -100 -51 -105 -16 -2
33 -4 107 -5 90 0 127 2 113 8 -21 9 -23 15 -23 99 0 75 3 92 18 100 12 8 -13
10 -90 11 l-108 0 21 -21z m97 -1 c7 -7 12 -44 12 -94 l0 -82 -41 -4 c-37 -3
-40 -2 -34 17 3 11 8 49 11 85 3 36 7 71 9 78 5 15 27 16 43 0z"/>
<path d="M7313 2349 c14 -8 17 -25 17 -99 0 -74 -3 -91 -17 -99 -13 -8 4 -10
65 -11 69 0 85 3 102 20 41 41 16 90 -51 99 -42 6 -44 8 -47 41 -3 24 2 38 14
47 15 11 9 13 -42 13 -45 -1 -55 -3 -41 -11z m125 -146 c3 -35 0 -42 -18 -48
-27 -9 -28 -8 -30 40 -3 56 -3 57 23 53 18 -2 23 -10 25 -45z"/>
<path d="M7554 2344 c24 -24 23 -179 -1 -193 -14 -8 -4 -10 42 -10 46 0 56 2
43 10 -15 8 -18 25 -18 99 0 74 3 91 18 99 13 8 3 10 -41 11 -53 0 -57 -1 -43
-16z"/>
<path d="M3790 2250 c0 -6 32 -10 75 -10 43 0 75 4 75 10 0 6 -32 10 -75 10
-43 0 -75 -4 -75 -10z"/>
<path d="M4980 2171 c0 -18 19 -31 43 -31 7 0 4 5 -5 11 -10 5 -18 17 -18 24
0 8 -4 15 -10 15 -5 0 -10 -9 -10 -19z"/>
<path d="M3992 2160 c-11 -19 -10 -20 23 -20 l35 0 -20 20 c-11 11 -21 20 -23
20 -1 0 -8 -9 -15 -20z"/>
<path d="M2940 2059 c157 -3 436 -7 621 -8 349 -1 404 -5 395 -26 -3 -10 2
-10 22 1 31 16 97 20 72 4 -12 -8 -9 -10 12 -10 21 0 35 -10 58 -42 16 -22 30
-50 30 -60 0 -38 33 -90 67 -106 29 -14 42 -14 91 -4 78 16 96 15 115 -6 22
-25 22 -29 -10 -58 -20 -19 -22 -23 -7 -18 46 17 59 57 28 89 -9 9 -14 19 -10
22 13 13 112 6 143 -10 74 -39 84 -142 16 -168 -32 -12 -89 5 -103 31 -33 62
20 122 81 90 36 -20 18 -80 -23 -80 -20 0 -35 26 -23 38 4 4 10 1 12 -5 6 -17
23 -16 23 1 0 16 -27 29 -41 20 -14 -8 -11 -40 6 -54 21 -18 64 -4 77 25 10
22 8 29 -12 50 -45 48 -120 20 -120 -46 0 -42 47 -89 89 -89 17 0 48 9 68 20
21 11 32 20 26 20 -9 0 -10 7 -4 23 7 17 3 40 -10 78 -11 30 -22 61 -25 71 -7
20 36 51 60 42 10 -4 16 -18 16 -36 0 -25 -4 -29 -22 -26 -26 3 -31 29 -8 35
12 4 12 3 1 -5 -8 -6 -9 -12 -3 -16 13 -8 26 10 17 24 -9 15 -35 12 -41 -5
-11 -27 14 -43 66 -43 56 0 81 18 60 43 -18 21 -40 19 -40 -5 0 -11 5 -20 11
-20 6 0 9 7 5 15 -3 8 -1 15 4 15 6 0 10 -9 10 -21 0 -30 -43 -22 -45 9 -4 53
70 49 78 -5 4 -27 4 -26 6 5 1 40 -34 62 -71 45 -16 -7 -28 -7 -41 1 -29 19
-72 -13 -71 -52 2 -31 2 -31 -27 -17 -15 8 -35 15 -43 15 -8 0 -1 13 20 34 45
45 46 84 3 120 -53 45 -119 25 -119 -37 0 -55 66 -78 95 -33 20 30 6 66 -25
66 -25 0 -34 -16 -21 -37 9 -16 10 -15 11 5 0 29 24 25 28 -5 5 -30 -23 -48
-53 -35 -30 14 -34 52 -8 77 35 35 113 -7 113 -61 0 -51 -36 -72 -176 -106
-118 -28 -135 -30 -164 -18 -39 16 -70 63 -70 107 0 111 186 142 220 38 28
-84 -61 -154 -120 -95 -41 41 -14 98 38 79 31 -12 28 -31 -4 -23 -24 6 -25 5
-14 -15 13 -25 28 -24 44 3 9 14 6 21 -13 37 -30 24 -46 24 -71 -1 -27 -27
-25 -56 5 -85 57 -58 165 -12 165 69 0 27 -8 44 -35 71 l-36 35 137 0 c132 0
137 -1 121 -18 -10 -10 -17 -23 -17 -28 0 -5 5 -1 11 9 12 20 59 23 77 5 20
-20 15 -66 -8 -73 -25 -8 -40 1 -40 25 0 22 16 35 25 20 3 -5 1 -10 -4 -10 -6
0 -11 -7 -11 -16 0 -14 3 -14 15 -4 33 27 3 61 -31 35 -16 -11 -16 -17 -6 -39
12 -27 49 -35 69 -15 8 8 17 7 32 -3 25 -16 54 -2 59 29 4 26 -24 51 -40 35
-13 -13 -4 -42 13 -42 8 0 8 4 -1 15 -15 18 -5 34 11 18 16 -16 7 -47 -14 -51
-38 -8 -64 47 -35 76 16 16 63 15 77 -2 6 -7 15 -35 20 -62 6 -32 18 -56 35
-71 22 -18 23 -22 8 -25 -9 -2 6 -4 33 -4 28 1 58 -2 68 -6 16 -7 16 -9 -3
-28 -25 -25 -25 -42 -2 -62 29 -25 48 -32 24 -9 -53 52 -8 93 79 73 82 -19
107 -16 144 21 22 22 35 46 40 76 5 33 18 55 51 88 40 40 48 44 92 42 61 -1
1292 20 1357 24 28 2 -877 3 -2010 3 -1133 0 -1932 -3 -1775 -7z m1248 -33
c-10 -7 -24 -25 -32 -41 l-14 -27 -17 31 c-9 18 -26 36 -38 41 -16 6 -3 9 48
9 60 0 67 -2 53 -13z m531 11 c-2 -1 -11 -8 -20 -15 -13 -10 -19 -9 -29 3 -11
13 -8 15 20 15 19 0 31 -1 29 -3z m287 -27 c-19 -17 -37 -44 -41 -60 -8 -39
16 -84 55 -100 37 -16 100 -7 117 17 36 49 -6 114 -61 94 -19 -8 -26 -18 -26
-36 0 -33 26 -44 45 -19 16 23 1 32 -21 13 -14 -11 -16 -11 -13 5 6 27 45 39
64 20 21 -22 19 -41 -10 -69 -73 -74 -170 41 -102 121 49 57 171 36 198 -34
23 -59 -38 -152 -99 -152 -15 0 -78 14 -141 30 -127 33 -161 54 -161 104 0 17
-8 45 -19 61 l-18 31 134 2 134 2 -35 -30z m281 19 c-10 -6 -27 -24 -37 -41
-17 -28 -18 -29 -25 -9 -3 11 -18 30 -32 41 l-26 20 69 0 c53 -1 65 -3 51 -11z"/>
<path d="M4832 2014 c-12 -8 -22 -20 -22 -25 0 -5 13 0 29 12 36 27 71 22 91
-14 14 -27 14 -29 -9 -48 -28 -23 -35 -24 -56 -3 -20 20 -16 48 9 52 14 3 17
0 11 -17 -4 -12 -2 -21 4 -21 6 0 11 12 11 26 0 20 -4 25 -21 22 -32 -5 -45
-31 -31 -62 23 -50 102 -22 102 36 0 48 -73 74 -118 42z"/>
<path d="M4001 2022 c-1 -7 -5 -10 -11 -7 -5 3 -10 -1 -10 -11 0 -14 2 -15 17
-3 9 8 19 13 22 12 3 -1 8 1 11 4 3 4 0 3 -7 0 -6 -4 -14 -1 -16 5 -4 10 -6
10 -6 0z"/>
<path d="M5339 2014 c19 -14 25 -14 32 -3 7 11 9 9 9 -6 0 -16 2 -17 10 -5 11
18 -9 33 -26 19 -8 -7 -14 -6 -19 1 -3 5 -11 10 -18 10 -6 0 -1 -7 12 -16z"/>
<path d="M5412 2010 c0 -14 2 -19 5 -12 2 6 2 18 0 25 -3 6 -5 1 -5 -13z"/>
<path d="M4045 1981 c-3 -6 4 -9 15 -8 11 1 20 5 20 9 0 11 -28 10 -35 -1z"/>
<path d="M5294 1975 c-7 -17 3 -35 19 -34 9 0 9 2 0 6 -7 2 -13 9 -13 15 0 6
7 8 15 4 9 -3 15 0 15 9 0 19 -29 19 -36 0z"/>
<path d="M4783 1827 c-28 -14 -45 -55 -47 -107 0 -28 -6 -42 -17 -45 -10 -3
-23 -13 -31 -22 -11 -13 -8 -13 15 2 27 17 30 17 63 2 19 -10 44 -17 55 -17
28 0 75 26 83 45 10 28 7 29 -14 2 -25 -31 -65 -42 -101 -27 -55 23 -55 107 2
154 32 27 29 31 -8 13z"/>
<path d="M4356 1792 c-2 -4 8 -8 22 -7 22 0 26 -4 24 -20 -3 -15 -1 -17 7 -9
17 16 2 44 -24 44 -13 0 -26 -4 -29 -8z"/>
<path d="M4802 1784 c-41 -28 -16 -94 36 -94 31 0 49 38 27 59 -15 15 -17 15
-31 -3 -17 -24 -10 -34 11 -16 20 17 32 5 15 -15 -17 -20 -33 -19 -53 3 -23
25 -21 39 8 58 32 21 73 11 85 -21 10 -26 20 -33 20 -15 0 20 -49 60 -72 60
-13 0 -34 -7 -46 -16z"/>
<path d="M4967 1793 c-10 -10 -8 -43 2 -43 5 0 7 9 4 19 -4 14 1 21 19 24 20
4 21 4 2 6 -11 0 -24 -2 -27 -6z"/>
<path d="M4665 1780 c-3 -5 -4 -14 -1 -19 4 -5 2 -11 -4 -13 -5 -1 -7 -13 -4
-25 8 -29 49 -31 64 -4 11 21 -1 35 -30 36 -8 0 -14 8 -14 18 2 19 -2 22 -11
7z m47 -47 c-6 -3 -10 -9 -7 -13 3 -5 -4 -8 -15 -7 -34 2 -31 24 3 24 18 1 26
-1 19 -4z"/>
<path d="M4370 1765 c0 -8 5 -15 10 -15 6 0 10 7 10 15 0 8 -4 15 -10 15 -5 0
-10 -7 -10 -15z"/>
<path d="M4990 1764 c0 -8 5 -12 10 -9 6 4 8 11 5 16 -9 14 -15 11 -15 -7z"/>
<path d="M5021 1768 c-1 -9 -9 -22 -18 -27 -17 -10 -17 -10 0 -11 19 0 32 22
24 42 -4 8 -6 7 -6 -4z"/>
<path d="M4350 1751 c0 -10 19 -25 25 -20 1 2 -3 10 -11 17 -8 7 -14 8 -14 3z"/>
<path d="M4704 1628 c-4 -6 1 -17 11 -25 27 -19 35 -16 34 10 0 21 -1 21 -9 2
-5 -11 -9 -14 -9 -7 -1 7 -6 10 -13 6 -8 -5 -9 -2 -5 9 7 19 2 23 -9 5z"/>
<path d="M4647 1609 c7 -7 15 -10 18 -7 3 3 -2 9 -12 12 -14 6 -15 5 -6 -5z"/>
</g>
</svg>
